# xmcd CD database file
#
# Track frame offsets:
#	150
#	15078
#	30867
#	46547
#	67693
#	83063
#	95687
#	112956
#	126113
#	145803
#	158151
#	176899
#	194444
#	208773
#	222427
#
# Disc length: 3131 seconds
#
# Revision: 0
# Processed by: cddbd v1.5.2PL0 Copyright (c) Steve Scherf et al.
# Submitted via: CDex 1.51
#
DISCID=bd0c390f
DTITLE=Greg Copeland and Martin Messing - Deep Down South
DYEAR=2013
DGENRE=Blues
TTITLE0=Goin Home
TTITLE1=She`s Gone
TTITLE2=Walking Blues
TTITLE3=Where Did You Sleep Last Night
TTITLE4=Willie and The Handjive
TTITLE5=Please Please
TTITLE6=I`m Gonna Hurt You
TTITLE7=Moonshine Whiskey Blues
TTITLE8=I Got To Ride
TTITLE9=Twenty Twenty Vision
TTITLE10=Crossroads
TTITLE11=I Got To Move
TTITLE12=Outside Woman
TTITLE13=BBQ Boogie
TTITLE14=A Sinners Prayer
EXTD=YEAR: 2013
EXTT0=
EXTT1=
EXTT2=
EXTT3=
EXTT4=
EXTT5=
EXTT6=
EXTT7=
EXTT8=
EXTT9=
EXTT10=
EXTT11=
EXTT12=
EXTT13=
EXTT14=
PLAYORDER=
